<svg width="135" height="39" viewBox="0 0 135 39" fill="none" xmlns="http://www.w3.org/2000/svg">
<path d="M15.271 26.1914C13.8062 27.583 12.4365 28.6011 11.1621 29.2456C9.90234 29.8755 8.62793 30.1904 7.33887 30.1904C5.80078 30.1904 4.48242 29.8242 3.38379 29.0918C2.28516 28.3594 1.44287 27.3047 0.856934 25.9277C0.285645 24.5508 0 22.9248 0 21.0498C0 18.7207 0.60791 16.3184 1.82373 13.8428C3.0542 11.3525 4.70215 9.05273 6.76758 6.94336C8.83301 4.83398 11.0815 3.14941 13.5132 1.88965C15.9448 0.629883 18.3105 0 20.6104 0C24.3018 0 26.1475 1.61865 26.1475 4.85596C26.1475 6.11572 25.8032 7.33887 25.1147 8.52539C24.4409 9.71191 23.54 10.6641 22.4121 11.3818C21.2842 12.0996 20.0903 12.4585 18.8306 12.4585C18.3179 12.4585 18.0615 12.2754 18.0615 11.9092C18.0615 11.8066 18.1494 11.5576 18.3252 11.1621C18.7207 10.3857 19.021 9.54346 19.2261 8.63525C19.4604 7.34619 19.5776 6.35742 19.5776 5.66895C19.5776 4.43848 19.4312 3.82324 19.1382 3.82324C18.4497 3.82324 17.4829 4.31396 16.2378 5.29541C15.0073 6.27686 13.9966 7.34619 13.2056 8.50342C12.4878 9.51416 11.8213 10.7153 11.2061 12.1069C10.6055 13.4985 10.1294 14.9048 9.77783 16.3257C9.44092 17.7466 9.27246 19.0503 9.27246 20.2368C9.27246 21.3647 9.51416 22.2949 9.99756 23.0273C10.481 23.7451 11.1108 24.104 11.8872 24.104C13.2202 24.104 14.7217 22.4121 16.3916 19.0283C16.9189 18.0908 17.2705 17.4976 17.4463 17.2485C17.6367 16.9849 17.9004 16.7505 18.2373 16.5454C19.1455 15.9741 20.2881 15.4688 21.665 15.0293C23.0566 14.5752 24.1333 14.3481 24.895 14.3481C25.7886 14.3481 26.2354 14.7949 26.2354 15.6885C26.2354 15.7617 26.1914 16.084 26.1035 16.6553C25.0635 20.9473 23.8037 24.873 22.3242 28.4326C20.8447 31.9922 19.4092 34.5264 18.0176 36.0352C17.373 36.7236 16.4209 37.2949 15.1611 37.749C13.9014 38.2031 12.6123 38.4302 11.2939 38.4302C10.21 38.4302 9.104 38.2471 7.97607 37.8809C6.86279 37.5146 5.94727 37.0459 5.22949 36.4746C4.51172 35.9033 4.15283 35.3394 4.15283 34.7827C4.15283 34.4165 4.35791 33.999 4.76807 33.5303C5.17822 33.0615 5.73486 32.5928 6.43799 32.124C7.55127 31.377 8.29102 31.0034 8.65723 31.0034C9.03809 31.0034 9.57275 31.4209 10.2612 32.2559C11.0962 33.2227 11.9824 34.021 12.9199 34.6509C13.4326 33.4497 13.9233 31.9775 14.3921 30.2344C14.8755 28.4912 15.1685 27.1436 15.271 26.1914Z" fill="white"/>
<path d="M44.7469 18.8086L44.3294 18.9404C43.2747 19.2334 42.513 19.3799 42.0442 19.3799C41.4729 19.3799 41.1873 19.2334 41.1873 18.9404C41.1873 18.8379 41.3045 18.5669 41.5389 18.1274C42.3592 16.8823 42.7693 15.7104 42.7693 14.6118C42.7693 13.9819 42.6595 13.4106 42.4397 12.8979C42.22 12.3706 41.9783 12.1069 41.7146 12.1069C41.4803 12.1069 41.1214 12.356 40.638 12.854C39.2757 14.3335 38.1917 15.8496 37.386 17.4023C36.595 18.9551 36.1995 20.3394 36.1995 21.5552C36.1995 22.3608 36.3606 23.0273 36.6829 23.5547C37.0198 24.082 37.4373 24.3457 37.9354 24.3457C38.3602 24.3457 39.1512 23.8916 40.3084 22.9834C41.4803 22.0752 42.7913 20.874 44.2415 19.3799L44.8348 18.8965L44.7469 18.8086ZM43.4285 23.8403V23.9282L43.3406 23.8403C41.9783 25.437 40.7259 26.748 39.5833 27.7734C38.4554 28.7842 37.408 29.5459 36.4412 30.0586C35.4891 30.5713 34.6102 30.8276 33.8045 30.8276C32.1639 30.8276 30.8089 30.2783 29.7396 29.1797C28.6702 28.0811 28.1355 26.6895 28.1355 25.0049C28.1355 23.9648 28.3992 22.7344 28.9266 21.3135C29.4539 19.8926 30.179 18.501 31.1019 17.1387C32.6399 14.9121 34.5735 13.0225 36.9026 11.4697C39.305 9.87305 41.6194 9.07471 43.846 9.07471C45.721 9.07471 47.2591 9.46289 48.4603 10.2393C49.6761 11.001 50.284 11.9678 50.284 13.1396C50.284 14.0039 49.9837 14.9194 49.3831 15.8862C50.1741 15.8862 50.6722 15.9741 50.8772 16.1499C51.0823 16.311 51.1849 16.6992 51.1849 17.3145C51.1849 17.2559 51.1482 17.5562 51.075 18.2153C50.9871 19.6655 50.9432 21.0205 50.9432 22.2803C50.9432 22.9395 50.9505 23.4375 50.9651 23.7744C50.9798 24.1113 51.0091 24.4995 51.053 24.939C51.097 25.3784 51.1409 25.73 51.1849 25.9937C51.3021 26.6821 51.4925 27.3633 51.7562 28.0371C50.8772 28.9014 50.035 29.5386 49.2293 29.9487C48.4236 30.3442 47.6033 30.542 46.7684 30.542C44.5125 30.542 43.3846 28.6523 43.3846 24.873C43.3846 24.4336 43.3992 24.0894 43.4285 23.8403Z" fill="white"/>
<path d="M64.0055 18.6328L65.3238 17.0947C66.6568 15.6152 67.7115 14.5166 68.4879 13.7988C69.2789 13.0664 69.982 12.5391 70.5973 12.2168C71.2271 11.8945 71.8644 11.7334 72.5089 11.7334C73.5489 11.7334 74.2813 12.0117 74.7062 12.5684C75.131 13.125 75.3434 14.0918 75.3434 15.4688C75.3434 16.04 75.2848 16.8823 75.1676 17.9956C74.9918 19.4751 74.9039 20.8667 74.9039 22.1704C74.9039 23.6353 74.9771 24.8218 75.1236 25.73C75.2262 26.2866 75.38 26.8433 75.5851 27.3999C75.7315 27.9272 75.8048 28.2861 75.8048 28.4766C75.8048 28.7109 75.7169 28.894 75.5411 29.0259C75.087 29.4214 74.4864 29.7656 73.7394 30.0586C72.9923 30.3516 72.3624 30.498 71.8497 30.498C71.0147 30.498 70.253 30.2124 69.5646 29.6411C68.8907 29.0698 68.3634 28.2788 67.9825 27.2681C67.6163 26.2573 67.4332 25.1147 67.4332 23.8403C67.4332 22.9907 67.5211 21.9873 67.6969 20.8301L67.609 20.7422C66.9791 21.4453 66.4664 22.002 66.0709 22.4121C65.69 22.8223 65.3312 23.2104 64.9942 23.5767C63.3536 25.4517 61.962 27.1436 60.8194 28.6523C60.38 29.2383 59.9771 29.751 59.6109 30.1904C59.0689 30.7324 58.4537 31.0034 57.7652 31.0034C56.8277 31.0034 56.066 30.6519 55.4801 29.9487C54.8941 29.2456 54.6012 28.3374 54.6012 27.2241C54.6012 26.5356 54.6817 25.6934 54.8429 24.6973C55.004 23.7012 55.2164 22.6392 55.4801 21.5112C55.7584 20.3687 56.0807 19.1968 56.4469 17.9956C56.8277 16.7944 57.2379 15.6519 57.6773 14.5679C58.3512 12.7661 59.1715 11.3599 60.1383 10.3491C60.7975 9.68994 61.5958 9.36035 62.5333 9.36035C64.0567 9.36035 64.8185 10.3491 64.8185 12.3267C64.8185 13.7769 64.5182 15.8496 63.9176 18.5449L64.0055 18.6328Z" fill="white"/>
<path d="M87.3949 18.6328L88.7133 17.0947C90.0463 15.6152 91.101 14.5166 91.8773 13.7988C92.6684 13.0664 93.3715 12.5391 93.9867 12.2168C94.6166 11.8945 95.2538 11.7334 95.8983 11.7334C96.9384 11.7334 97.6708 12.0117 98.0956 12.5684C98.5204 13.125 98.7328 14.0918 98.7328 15.4688C98.7328 16.04 98.6742 16.8823 98.557 17.9956C98.3812 19.4751 98.2934 20.8667 98.2934 22.1704C98.2934 23.6353 98.3666 24.8218 98.5131 25.73C98.6156 26.2866 98.7694 26.8433 98.9745 27.3999C99.121 27.9272 99.1942 28.2861 99.1942 28.4766C99.1942 28.7109 99.1063 28.894 98.9306 29.0259C98.4765 29.4214 97.8759 29.7656 97.1288 30.0586C96.3817 30.3516 95.7519 30.498 95.2392 30.498C94.4042 30.498 93.6425 30.2124 92.954 29.6411C92.2802 29.0698 91.7528 28.2788 91.372 27.2681C91.0058 26.2573 90.8227 25.1147 90.8227 23.8403C90.8227 22.9907 90.9105 21.9873 91.0863 20.8301L90.9984 20.7422C90.3686 21.4453 89.8559 22.002 89.4604 22.4121C89.0795 22.8223 88.7206 23.2104 88.3837 23.5767C86.7431 25.4517 85.3515 27.1436 84.2089 28.6523C83.7694 29.2383 83.3666 29.751 83.0004 30.1904C82.4584 30.7324 81.8432 31.0034 81.1547 31.0034C80.2172 31.0034 79.4555 30.6519 78.8695 29.9487C78.2836 29.2456 77.9906 28.3374 77.9906 27.2241C77.9906 26.5356 78.0712 25.6934 78.2323 24.6973C78.3935 23.7012 78.6059 22.6392 78.8695 21.5112C79.1479 20.3687 79.4701 19.1968 79.8363 17.9956C80.2172 16.7944 80.6273 15.6519 81.0668 14.5679C81.7406 12.7661 82.5609 11.3599 83.5277 10.3491C84.1869 9.68994 84.9853 9.36035 85.9228 9.36035C87.4462 9.36035 88.2079 10.3491 88.2079 12.3267C88.2079 13.7769 87.9076 15.8496 87.307 18.5449L87.3949 18.6328Z" fill="white"/>
<path d="M108.939 23.4009C109.613 22.9468 110.125 22.4927 110.477 22.0386C111.253 21.0864 111.854 19.9951 112.279 18.7646C112.615 17.959 112.879 17.0581 113.07 16.062C113.26 15.0659 113.355 14.1357 113.355 13.2715C113.355 12.4658 113.187 12.063 112.85 12.063C112.381 12.063 111.663 13.0957 110.696 15.1611C110.125 16.4062 109.656 17.6514 109.29 18.8965C108.939 20.127 108.763 21.189 108.763 22.0825C108.763 22.3901 108.821 22.8296 108.939 23.4009ZM108.983 24.104C109.144 24.9829 109.715 25.4224 110.696 25.4224C111.795 25.4224 113.223 24.7778 114.981 23.4888C116.007 22.7417 116.695 22.3682 117.047 22.3682C117.486 22.3682 117.896 22.4854 118.277 22.7197C118.658 22.9541 118.848 23.1958 118.848 23.4448C118.848 23.7085 118.636 24.0527 118.211 24.4775C117.435 25.2539 116.541 26.0156 115.53 26.7627C114.52 27.4951 113.546 28.1104 112.608 28.6084C111.671 29.0918 110.733 29.48 109.796 29.7729C108.858 30.0513 108.023 30.1904 107.291 30.1904C105.46 30.1904 103.995 29.6704 102.896 28.6304C101.798 27.5757 101.248 26.1768 101.248 24.4336C101.248 23.1006 101.534 21.5991 102.105 19.9292C102.691 18.2446 103.475 16.6699 104.456 15.2051C105.613 13.4912 107.034 12.063 108.719 10.9204C110.799 9.54346 112.791 8.85498 114.696 8.85498C116.072 8.85498 117.149 9.29443 117.925 10.1733C118.717 11.0376 119.112 12.2314 119.112 13.7549C119.112 14.9414 118.797 16.1792 118.167 17.4683C117.552 18.7573 116.636 19.9951 115.421 21.1816C114.425 22.1777 113.443 22.9541 112.476 23.5107C111.524 24.0674 110.689 24.3457 109.971 24.3457C109.649 24.3457 109.32 24.2651 108.983 24.104Z" fill="white"/>
<path d="M125.187 8.98682L125.275 8.72314C126.242 5.99854 127.077 4.07959 127.78 2.96631C128.117 2.43896 128.585 1.97021 129.186 1.56006C130.314 0.842285 131.376 0.483398 132.372 0.483398C132.958 0.483398 133.405 0.615234 133.712 0.878906C134.02 1.14258 134.174 1.52344 134.174 2.02148C134.174 2.3584 133.954 3.04688 133.515 4.08691C132.768 5.81543 132.211 7.43408 131.845 8.94287C132.094 8.97217 132.335 9.01611 132.57 9.07471C133.449 9.20654 134.027 9.36035 134.306 9.53613C134.584 9.69727 134.723 9.99756 134.723 10.437C134.723 11.2134 134.525 11.9312 134.13 12.5903C133.734 13.2495 133.214 13.7329 132.57 14.0405C132.086 14.2603 131.303 14.4067 130.219 14.48C130.028 15.0513 129.816 15.835 129.582 16.8311C129.45 17.71 129.303 18.9258 129.142 20.4785C129.054 21.0498 129.01 21.5845 129.01 22.0825C129.01 24.397 130.131 25.5542 132.372 25.5542H132.57C132.833 25.5542 132.965 25.5981 132.965 25.686C132.965 25.9204 132.716 26.3159 132.218 26.8726C131.72 27.4292 131.171 27.9199 130.57 28.3447C129.926 28.7842 129.223 29.1357 128.461 29.3994C127.699 29.6631 127.011 29.7949 126.396 29.7949C124.857 29.7949 123.605 29.2749 122.638 28.2349C121.686 27.1948 121.21 25.8179 121.21 24.104C121.21 23.3716 121.334 22.4121 121.583 21.2256C121.847 20.0391 122.25 18.4497 122.792 16.4575C122.88 16.106 122.975 15.7397 123.078 15.3589C123.18 14.9634 123.239 14.729 123.253 14.6558C122.667 14.6411 122.25 14.5166 122.001 14.2822C121.752 14.0479 121.627 13.667 121.627 13.1396C121.627 12.2168 121.979 11.3452 122.682 10.5249C123.4 9.70459 124.235 9.19189 125.187 8.98682Z" fill="white"/>
</svg>
